<svg xmlns="http://www.w3.org/2000/svg" xmlns:xlink="http://www.w3.org/1999/xlink" viewBox="0 0 96 24"><path d="M 2.373 22.26 L 23.065 22.26 L 23.065 1.74 L 2.373 1.74 Z M 19.082 10.026 L 14.71 10.026 L 14.71 5.69 L 19.082 5.69 Z M 6.355 5.69 L 10.729 5.69 L 10.729 13.974 L 19.082 13.974 L 19.082 18.31 L 6.355 18.31 Z M 36.54 1.74 C 30.826 1.74 26.193 6.334 26.193 12 C 26.193 17.666 30.826 22.26 36.54 22.26 C 42.254 22.26 46.886 17.666 46.886 12 C 46.879 6.336 42.251 1.747 36.54 1.74 Z M 36.54 18.31 C 33.025 18.31 30.176 15.485 30.176 12 C 30.176 8.515 33.025 5.69 36.54 5.69 C 40.054 5.69 42.903 8.515 42.903 12 C 42.898 15.483 40.052 18.305 36.54 18.31 Z M 83.91 1.74 C 78.196 1.74 73.564 6.333 73.564 11.999 C 73.564 17.665 78.196 22.258 83.909 22.258 C 89.623 22.259 94.255 17.666 94.255 12 C 94.248 6.337 89.621 1.747 83.91 1.74 Z M 83.91 18.31 C 80.643 18.302 77.913 15.842 77.592 12.618 C 77.272 9.393 79.465 6.452 82.667 5.811 C 85.415 5.27 88.196 6.576 89.517 9.026 C 90.837 11.476 90.386 14.494 88.406 16.459 C 87.213 17.642 85.596 18.308 83.91 18.31 Z M 60.224 1.74 C 54.51 1.74 49.878 6.334 49.878 12 C 49.878 17.666 54.51 22.26 60.224 22.26 C 65.938 22.26 70.57 17.666 70.57 12 C 70.564 6.336 65.936 1.747 60.224 1.74 Z M 60.224 18.31 C 56.97 18.312 54.239 15.879 53.894 12.67 C 53.548 9.462 55.699 6.511 58.88 5.831 C 62.061 5.151 65.247 6.961 66.265 10.026 L 60.224 10.026 L 60.224 13.974 L 66.265 13.974 C 65.403 16.559 62.969 18.306 60.224 18.31 Z" fill="rgb(255, 255, 255)"></path></svg>