<svg xmlns="http://www.w3.org/2000/svg" viewBox="0 0 256 256" focusable="false" color="var(--token-5107d306-f8f4-41d3-836a-f7d9ca512231, rgb(98, 92, 208))" style="user-select: none; width: 100%; height: 100%; display: inline-block; fill: var(--token-5107d306-f8f4-41d3-836a-f7d9ca512231, rgb(98, 92, 208)); color: var(--token-5107d306-f8f4-41d3-836a-f7d9ca512231, rgb(98, 92, 208)); flex-shrink: 0;"><g color="var(--token-5107d306-f8f4-41d3-836a-f7d9ca512231, rgb(98, 92, 208))" weight="duotone"><path d="M208,40V208H152V40Z" opacity="0.2"></path><path d="M224,200h-8V40a8,8,0,0,0-8-8H152a8,8,0,0,0-8,8V80H96a8,8,0,0,0-8,8v40H48a8,8,0,0,0-8,8v64H32a8,8,0,0,0,0,16H224a8,8,0,0,0,0-16ZM160,48h40V200H160ZM104,96h40V200H104ZM56,144H88v56H56Z"></path></g></svg>